%TF.GenerationSoftware,KiCad,Pcbnew,9.0.4*%
%TF.CreationDate,2026-03-30T00:29:42-04:00*%
%TF.ProjectId,spectropcb,73706563-7472-46f7-9063-622e6b696361,rev?*%
%TF.SameCoordinates,Original*%
%TF.FileFunction,Copper,L1,Top*%
%TF.FilePolarity,Positive*%
%FSLAX46Y46*%
G04 Gerber Fmt 4.6, Leading zero omitted, Abs format (unit mm)*
G04 Created by KiCad (PCBNEW 9.0.4) date 2026-03-30 00:29:42*
%MOMM*%
%LPD*%
G01*
G04 APERTURE LIST*
G04 Aperture macros list*
%AMRoundRect*
0 Rectangle with rounded corners*
0 $1 Rounding radius*
0 $2 $3 $4 $5 $6 $7 $8 $9 X,Y pos of 4 corners*
0 Add a 4 corners polygon primitive as box body*
4,1,4,$2,$3,$4,$5,$6,$7,$8,$9,$2,$3,0*
0 Add four circle primitives for the rounded corners*
1,1,$1+$1,$2,$3*
1,1,$1+$1,$4,$5*
1,1,$1+$1,$6,$7*
1,1,$1+$1,$8,$9*
0 Add four rect primitives between the rounded corners*
20,1,$1+$1,$2,$3,$4,$5,0*
20,1,$1+$1,$4,$5,$6,$7,0*
20,1,$1+$1,$6,$7,$8,$9,0*
20,1,$1+$1,$8,$9,$2,$3,0*%
G04 Aperture macros list end*
%TA.AperFunction,SMDPad,CuDef*%
%ADD10RoundRect,0.250000X-0.250000X-0.475000X0.250000X-0.475000X0.250000X0.475000X-0.250000X0.475000X0*%
%TD*%
%TA.AperFunction,SMDPad,CuDef*%
%ADD11RoundRect,0.250000X-0.325000X-0.650000X0.325000X-0.650000X0.325000X0.650000X-0.325000X0.650000X0*%
%TD*%
%TA.AperFunction,SMDPad,CuDef*%
%ADD12RoundRect,0.250000X0.450000X-0.262500X0.450000X0.262500X-0.450000X0.262500X-0.450000X-0.262500X0*%
%TD*%
%TA.AperFunction,ComponentPad*%
%ADD13C,1.473200*%
%TD*%
%TA.AperFunction,ComponentPad*%
%ADD14R,1.473200X1.473200*%
%TD*%
%TA.AperFunction,ComponentPad*%
%ADD15R,1.050000X1.500000*%
%TD*%
%TA.AperFunction,ComponentPad*%
%ADD16O,1.050000X1.500000*%
%TD*%
%TA.AperFunction,ComponentPad*%
%ADD17R,1.700000X1.700000*%
%TD*%
%TA.AperFunction,ComponentPad*%
%ADD18O,1.700000X1.700000*%
%TD*%
%TA.AperFunction,ComponentPad*%
%ADD19R,1.170000X1.170000*%
%TD*%
%TA.AperFunction,ComponentPad*%
%ADD20C,1.170000*%
%TD*%
%TA.AperFunction,SMDPad,CuDef*%
%ADD21RoundRect,0.250000X0.262500X0.450000X-0.262500X0.450000X-0.262500X-0.450000X0.262500X-0.450000X0*%
%TD*%
%TA.AperFunction,SMDPad,CuDef*%
%ADD22RoundRect,0.250000X-0.450000X0.262500X-0.450000X-0.262500X0.450000X-0.262500X0.450000X0.262500X0*%
%TD*%
%TA.AperFunction,ComponentPad*%
%ADD23RoundRect,0.250000X-0.350000X-0.625000X0.350000X-0.625000X0.350000X0.625000X-0.350000X0.625000X0*%
%TD*%
%TA.AperFunction,ComponentPad*%
%ADD24O,1.200000X1.750000*%
%TD*%
%TA.AperFunction,SMDPad,CuDef*%
%ADD25R,1.000000X2.700000*%
%TD*%
%TA.AperFunction,SMDPad,CuDef*%
%ADD26R,0.600000X1.700000*%
%TD*%
%TA.AperFunction,Conductor*%
%ADD27C,0.500000*%
%TD*%
%TA.AperFunction,Conductor*%
%ADD28C,0.200000*%
%TD*%
G04 APERTURE END LIST*
D10*
%TO.P,C1,2*%
%TO.N,GND*%
X148450000Y-67500000D03*
%TO.P,C1,1*%
%TO.N,+5V*%
X146550000Y-67500000D03*
%TD*%
D11*
%TO.P,C2,2*%
%TO.N,GND*%
X155000000Y-67500000D03*
%TO.P,C2,1*%
%TO.N,+5V*%
X152050000Y-67500000D03*
%TD*%
%TO.P,C3,2*%
%TO.N,GND*%
X152500000Y-65000000D03*
%TO.P,C3,1*%
%TO.N,+5V*%
X149550000Y-65000000D03*
%TD*%
D12*
%TO.P,R3,2*%
%TO.N,GND*%
X144087500Y-64087500D03*
%TO.P,R3,1*%
%TO.N,Net-(Q1-C)*%
X144087500Y-65912500D03*
%TD*%
D13*
%TO.P,U1,22,SS*%
%TO.N,GND*%
X169920000Y-54800000D03*
%TO.P,U1,21,OS*%
%TO.N,Net-(U1-OS)*%
X169920000Y-57340000D03*
%TO.P,U1,20,NC*%
%TO.N,unconnected-(U1-NC-Pad20)*%
X169920000Y-59880000D03*
%TO.P,U1,19,NC*%
%TO.N,unconnected-(U1-NC-Pad19)*%
X169920000Y-62420000D03*
%TO.P,U1,18,NC*%
%TO.N,unconnected-(U1-NC-Pad18)*%
X169920000Y-64960000D03*
%TO.P,U1,17,NC*%
%TO.N,unconnected-(U1-NC-Pad17)*%
X169920000Y-67500000D03*
%TO.P,U1,16,NC*%
%TO.N,unconnected-(U1-NC-Pad16)*%
X169920000Y-70040000D03*
%TO.P,U1,15,NC*%
%TO.N,unconnected-(U1-NC-Pad15)*%
X169920000Y-72580000D03*
%TO.P,U1,14,NC*%
%TO.N,unconnected-(U1-NC-Pad14)*%
X169920000Y-75120000D03*
%TO.P,U1,13,NC*%
%TO.N,unconnected-(U1-NC-Pad13)*%
X169920000Y-77660000D03*
%TO.P,U1,12,NC*%
%TO.N,unconnected-(U1-NC-Pad12)*%
X169920000Y-80200000D03*
%TO.P,U1,11,NC*%
%TO.N,unconnected-(U1-NC-Pad11)*%
X180080000Y-80200000D03*
%TO.P,U1,10,NC*%
%TO.N,unconnected-(U1-NC-Pad10)*%
X180080000Y-77660000D03*
%TO.P,U1,9,NC*%
%TO.N,unconnected-(U1-NC-Pad9)*%
X180080000Y-75120000D03*
%TO.P,U1,8,NC*%
%TO.N,unconnected-(U1-NC-Pad8)*%
X180080000Y-72580000D03*
%TO.P,U1,7,NC*%
%TO.N,unconnected-(U1-NC-Pad7)*%
X180080000Y-70040000D03*
%TO.P,U1,6,NC*%
%TO.N,unconnected-(U1-NC-Pad6)*%
X180080000Y-67500000D03*
%TO.P,U1,5,SH*%
%TO.N,Net-(U1-SH)*%
X180080000Y-64960000D03*
%TO.P,U1,4,phiM*%
%TO.N,Net-(U1-phiM)*%
X180080000Y-62420000D03*
%TO.P,U1,3,ICG*%
%TO.N,Net-(U1-ICG)*%
X180080000Y-59880000D03*
%TO.P,U1,2,VAD*%
%TO.N,+5V*%
X180080000Y-57340000D03*
D14*
%TO.P,U1,1,VDD*%
X180080000Y-54800000D03*
%TD*%
D15*
%TO.P,Q1,1,E*%
%TO.N,/17*%
X137460000Y-65000000D03*
D16*
%TO.P,Q1,2,C*%
%TO.N,Net-(Q1-C)*%
X138730000Y-65000000D03*
%TO.P,Q1,3,B*%
%TO.N,Net-(Q1-B)*%
X140000000Y-65000000D03*
%TD*%
D17*
%TO.P,J3,1,Pin_1*%
%TO.N,/43*%
X133900000Y-79500000D03*
D18*
%TO.P,J3,2,Pin_2*%
%TO.N,/42*%
X133900000Y-76960000D03*
%TO.P,J3,3,Pin_3*%
%TO.N,/41*%
X136440000Y-79500000D03*
%TO.P,J3,4,Pin_4*%
%TO.N,/40*%
X136440000Y-76960000D03*
%TO.P,J3,5,Pin_5*%
%TO.N,/39*%
X138980000Y-79500000D03*
%TO.P,J3,6,Pin_6*%
%TO.N,/38*%
X138980000Y-76960000D03*
%TO.P,J3,7,Pin_7*%
%TO.N,/26*%
X141520000Y-79500000D03*
%TO.P,J3,8,Pin_8*%
%TO.N,/27*%
X141520000Y-76960000D03*
%TO.P,J3,9,Pin_9*%
%TO.N,/28*%
X144060000Y-79500000D03*
%TO.P,J3,10,Pin_10*%
%TO.N,/29*%
X144060000Y-76960000D03*
%TO.P,J3,11,Pin_11*%
%TO.N,/30*%
X146600000Y-79500000D03*
%TO.P,J3,12,Pin_12*%
%TO.N,/34*%
X146600000Y-76960000D03*
%TO.P,J3,13,Pin_13*%
%TO.N,/33*%
X149140000Y-79500000D03*
%TO.P,J3,14,Pin_14*%
%TO.N,/35*%
X149140000Y-76960000D03*
%TO.P,J3,15,Pin_15*%
%TO.N,/36*%
X151680000Y-79500000D03*
%TO.P,J3,16,Pin_16*%
%TO.N,/37*%
X151680000Y-76960000D03*
%TD*%
D19*
%TO.P,U2,1,1A*%
%TO.N,/21*%
X158530000Y-67380000D03*
D20*
%TO.P,U2,2,1Y*%
%TO.N,Net-(U1-ICG)*%
X158530000Y-69920000D03*
%TO.P,U2,3,2A*%
%TO.N,/22*%
X158530000Y-72460000D03*
%TO.P,U2,4,2Y*%
%TO.N,Net-(U1-phiM)*%
X158530000Y-75000000D03*
%TO.P,U2,5,3A*%
%TO.N,/39*%
X158530000Y-77540000D03*
%TO.P,U2,6,3Y*%
%TO.N,Net-(U1-SH)*%
X158530000Y-80080000D03*
%TO.P,U2,7,GND*%
%TO.N,GND*%
X158530000Y-82620000D03*
%TO.P,U2,8,4Y*%
%TO.N,unconnected-(U2-4Y-Pad8)*%
X166470000Y-82620000D03*
%TO.P,U2,9,4A*%
%TO.N,unconnected-(U2-4A-Pad9)*%
X166470000Y-80080000D03*
%TO.P,U2,10,5Y*%
%TO.N,unconnected-(U2-5Y-Pad10)*%
X166470000Y-77540000D03*
%TO.P,U2,11,5A*%
%TO.N,unconnected-(U2-5A-Pad11)*%
X166470000Y-75000000D03*
%TO.P,U2,12,6Y*%
%TO.N,unconnected-(U2-6Y-Pad12)*%
X166470000Y-72460000D03*
%TO.P,U2,13,6A*%
%TO.N,unconnected-(U2-6A-Pad13)*%
X166470000Y-69920000D03*
%TO.P,U2,14,VCC*%
%TO.N,+5V*%
X166470000Y-67380000D03*
%TD*%
D17*
%TO.P,J1,1,Pin_1*%
%TO.N,/3*%
X126260000Y-59240000D03*
D18*
%TO.P,J1,2,Pin_2*%
%TO.N,/2*%
X128800000Y-59240000D03*
%TO.P,J1,3,Pin_3*%
%TO.N,/9*%
X126260000Y-61780000D03*
%TO.P,J1,4,Pin_4*%
%TO.N,/8*%
X128800000Y-61780000D03*
%TO.P,J1,5,Pin_5*%
%TO.N,/11*%
X126260000Y-64320000D03*
%TO.P,J1,6,Pin_6*%
%TO.N,/10*%
X128800000Y-64320000D03*
%TO.P,J1,7,Pin_7*%
%TO.N,/17*%
X126260000Y-66860000D03*
%TO.P,J1,8,Pin_8*%
%TO.N,/16*%
X128800000Y-66860000D03*
%TO.P,J1,9,Pin_9*%
%TO.N,/21*%
X126260000Y-69400000D03*
%TO.P,J1,10,Pin_10*%
%TO.N,/20*%
X128800000Y-69400000D03*
%TO.P,J1,11,Pin_11*%
%TO.N,/23*%
X126260000Y-71940000D03*
%TO.P,J1,12,Pin_12*%
%TO.N,/22*%
X128800000Y-71940000D03*
%TO.P,J1,13,Pin_13*%
%TO.N,/25*%
X126260000Y-74480000D03*
%TO.P,J1,14,Pin_14*%
%TO.N,/24*%
X128800000Y-74480000D03*
%TD*%
D21*
%TO.P,R2,1*%
%TO.N,Net-(Q1-B)*%
X160000000Y-60000000D03*
%TO.P,R2,2*%
%TO.N,Net-(U1-OS)*%
X158175000Y-60000000D03*
%TD*%
D22*
%TO.P,R1,1*%
%TO.N,+5V*%
X135000000Y-65675000D03*
%TO.P,R1,2*%
%TO.N,/17*%
X135000000Y-67500000D03*
%TD*%
D23*
%TO.P,J4,1,Pin_1*%
%TO.N,+5V*%
X148000000Y-85000000D03*
D24*
%TO.P,J4,2,Pin_2*%
%TO.N,GND*%
X150000000Y-85000000D03*
%TD*%
D17*
%TO.P,J2,1,Pin_1*%
%TO.N,/6*%
X133880000Y-56670000D03*
D18*
%TO.P,J2,2,Pin_2*%
%TO.N,/4*%
X133880000Y-54130000D03*
%TO.P,J2,3,Pin_3*%
%TO.N,/61*%
X136420000Y-56670000D03*
%TO.P,J2,4,Pin_4*%
%TO.N,/62*%
X136420000Y-54130000D03*
%TO.P,J2,5,Pin_5*%
%TO.N,/58*%
X138960000Y-56670000D03*
%TO.P,J2,6,Pin_6*%
%TO.N,/59*%
X138960000Y-54130000D03*
%TO.P,J2,7,Pin_7*%
%TO.N,/56*%
X141500000Y-56670000D03*
%TO.P,J2,8,Pin_8*%
%TO.N,/57*%
X141500000Y-54130000D03*
%TO.P,J2,9,Pin_9*%
%TO.N,/54*%
X144040000Y-56670000D03*
%TO.P,J2,10,Pin_10*%
%TO.N,/55*%
X144040000Y-54130000D03*
%TO.P,J2,11,Pin_11*%
%TO.N,/52*%
X146580000Y-56670000D03*
%TO.P,J2,12,Pin_12*%
%TO.N,/53*%
X146580000Y-54130000D03*
%TO.P,J2,13,Pin_13*%
%TO.N,/50*%
X149120000Y-56670000D03*
%TO.P,J2,14,Pin_14*%
%TO.N,/51*%
X149120000Y-54130000D03*
%TO.P,J2,15,Pin_15*%
%TO.N,GND*%
X151660000Y-56670000D03*
%TO.P,J2,16,Pin_16*%
%TO.N,+3.3V*%
X151660000Y-54130000D03*
%TD*%
D25*
%TO.P,J6,MP2*%
%TO.N,N/C*%
X126275000Y-86175000D03*
%TO.P,J6,MP1*%
X133725000Y-86175000D03*
D26*
%TO.P,J6,4,4*%
%TO.N,unconnected-(J6-Pad4)*%
X128125000Y-89375000D03*
%TO.P,J6,3,3*%
%TO.N,GND*%
X129375000Y-89375000D03*
%TO.P,J6,2,2*%
%TO.N,/16*%
X130625000Y-89375000D03*
%TO.P,J6,1,1*%
%TO.N,+5V*%
X131875000Y-89375000D03*
%TD*%
D27*
%TO.N,+5V*%
X155000000Y-72500000D02*
X147500000Y-72500000D01*
X156500123Y-65999877D02*
X156500123Y-70999877D01*
X163811189Y-64721189D02*
X157778811Y-64721189D01*
X156500123Y-70999877D02*
X155000000Y-72500000D01*
X166470000Y-67380000D02*
X163811189Y-64721189D01*
X157778811Y-64721189D02*
X156500123Y-65999877D01*
X146550000Y-68450000D02*
X142500000Y-72500000D01*
X146550000Y-67500000D02*
X146550000Y-68450000D01*
X142500000Y-72500000D02*
X145000000Y-72500000D01*
X152050000Y-67500000D02*
X147050000Y-72500000D01*
X132725000Y-69775000D02*
X135450000Y-72500000D01*
X135450000Y-72500000D02*
X142500000Y-72500000D01*
X145000000Y-72500000D02*
X147500000Y-72500000D01*
%TO.N,/17*%
X137460000Y-65040000D02*
X135000000Y-67500000D01*
D28*
X137460000Y-65000000D02*
X137460000Y-65040000D01*
D27*
%TO.N,Net-(Q1-C)*%
X142500000Y-67500000D02*
X143949000Y-66051000D01*
X138730000Y-66230000D02*
X140000000Y-67500000D01*
X140000000Y-67500000D02*
X142500000Y-67500000D01*
X138730000Y-65123140D02*
X138730000Y-66230000D01*
%TO.N,GND*%
X148450000Y-63210000D02*
X151660000Y-60000000D01*
X148450000Y-67500000D02*
X148450000Y-63210000D01*
X151660000Y-60000000D02*
X151660000Y-64160000D01*
X145037500Y-64087500D02*
X148450000Y-67500000D01*
X144087500Y-64087500D02*
X145037500Y-64087500D01*
%TO.N,+5V*%
X152050000Y-67500000D02*
X149550000Y-65000000D01*
%TO.N,GND*%
X152500000Y-65000000D02*
X155000000Y-67500000D01*
X151660000Y-64160000D02*
X152500000Y-65000000D01*
X151660000Y-56670000D02*
X151660000Y-60000000D01*
D28*
%TO.N,Net-(Q1-C)*%
X143949000Y-66051000D02*
X144087500Y-65912500D01*
D27*
%TO.N,Net-(Q1-B)*%
X140000000Y-64050000D02*
X140000000Y-65000000D01*
X131684488Y-57913488D02*
X133771000Y-60000000D01*
X131684488Y-56684488D02*
X131684488Y-57913488D01*
X137500000Y-47500000D02*
X130000000Y-55000000D01*
X130000000Y-55000000D02*
X131684488Y-56684488D01*
X155362111Y-47500000D02*
X137500000Y-47500000D01*
X160000000Y-52137889D02*
X155362111Y-47500000D01*
X133771000Y-60000000D02*
X135950000Y-60000000D01*
X160000000Y-60000000D02*
X160000000Y-52137889D01*
X135950000Y-60000000D02*
X140000000Y-64050000D01*
%TO.N,/17*%
X132601000Y-60101000D02*
X136250000Y-63750000D01*
X130101000Y-60101000D02*
X132601000Y-60101000D01*
X126653264Y-55253372D02*
X130101000Y-58701108D01*
X130101000Y-58701108D02*
X130101000Y-60101000D01*
X123857000Y-58049636D02*
X126653264Y-55253372D01*
X123857000Y-64457000D02*
X123857000Y-58049636D01*
X126260000Y-66860000D02*
X123857000Y-64457000D01*
X137460000Y-64960000D02*
X136250000Y-63750000D01*
D28*
X137460000Y-65000000D02*
X137460000Y-64960000D01*
D27*
%TO.N,+5V*%
X132500000Y-65675000D02*
X135000000Y-65675000D01*
X145500000Y-82500000D02*
X148000000Y-85000000D01*
X132500000Y-82500000D02*
X145500000Y-82500000D01*
X132500000Y-70000000D02*
X132500000Y-82500000D01*
X150500000Y-82500000D02*
X147750000Y-85250000D01*
X153335798Y-82500000D02*
X150500000Y-82500000D01*
X180000000Y-82500000D02*
X180000000Y-87500000D01*
X182500000Y-80000000D02*
X180000000Y-82500000D01*
X177500000Y-90000000D02*
X160835798Y-90000000D01*
X182500000Y-59760000D02*
X182500000Y-80000000D01*
X180000000Y-87500000D02*
X177500000Y-90000000D01*
X180080000Y-57340000D02*
X182500000Y-59760000D01*
X160835798Y-90000000D02*
X153335798Y-82500000D01*
%TO.N,Net-(U1-OS)*%
X160675000Y-62500000D02*
X158175000Y-60000000D01*
X162500000Y-62500000D02*
X160675000Y-62500000D01*
X167660000Y-57340000D02*
X162500000Y-62500000D01*
X169920000Y-57340000D02*
X167660000Y-57340000D01*
%TO.N,+5V*%
X132500000Y-65675000D02*
X132500000Y-70000000D01*
D28*
X132725000Y-69775000D02*
X132500000Y-70000000D01*
%TO.N,Net-(U1-ICG)*%
X173962400Y-65997600D02*
X180080000Y-59880000D01*
X169105394Y-65997600D02*
X173962400Y-65997600D01*
X165182994Y-69920000D02*
X169105394Y-65997600D01*
X158530000Y-69920000D02*
X165182994Y-69920000D01*
%TO.N,Net-(U1-phiM)*%
X162500000Y-75000000D02*
X158530000Y-75000000D01*
X166836994Y-70806000D02*
X166694000Y-70806000D01*
X167356000Y-70286994D02*
X166836994Y-70806000D01*
X168962400Y-68537600D02*
X167356000Y-70144000D01*
X167356000Y-70144000D02*
X167356000Y-70286994D01*
X174042400Y-68537600D02*
X168962400Y-68537600D01*
X180160000Y-62420000D02*
X174042400Y-68537600D01*
X166694000Y-70806000D02*
X162500000Y-75000000D01*
D27*
%TO.N,+5V*%
X143625000Y-89375000D02*
X145575000Y-87425000D01*
X131875000Y-89375000D02*
X143625000Y-89375000D01*
%TO.N,GND*%
X130000000Y-92500000D02*
X129375000Y-91875000D01*
X142500000Y-92500000D02*
X130000000Y-92500000D01*
X129375000Y-91875000D02*
X129375000Y-89375000D01*
X145000000Y-90000000D02*
X142500000Y-92500000D01*
D28*
%TO.N,/16*%
X130625000Y-68685000D02*
X130625000Y-89375000D01*
X128800000Y-66860000D02*
X130625000Y-68685000D01*
D27*
%TO.N,GND*%
X145000000Y-90000000D02*
X150000000Y-85000000D01*
%TO.N,+5V*%
X147750000Y-85250000D02*
X148000000Y-85000000D01*
X145575000Y-87425000D02*
X147750000Y-85250000D01*
X180160000Y-57340000D02*
X180160000Y-54800000D01*
D28*
%TO.N,Net-(Q1-C)*%
X138730000Y-65000000D02*
X138730000Y-65123140D01*
X138730000Y-65000000D02*
X138730000Y-65225000D01*
%TO.N,Net-(U1-SH)*%
X169105395Y-71077600D02*
X160102995Y-80080000D01*
X160102995Y-80080000D02*
X158530000Y-80080000D01*
X180160000Y-64960000D02*
X174042400Y-71077600D01*
X174042400Y-71077600D02*
X169105395Y-71077600D01*
%TD*%
M02*
