%TF.GenerationSoftware,KiCad,Pcbnew,9.0.4*%
%TF.CreationDate,2026-03-30T00:29:42-04:00*%
%TF.ProjectId,spectropcb,73706563-7472-46f7-9063-622e6b696361,rev?*%
%TF.SameCoordinates,Original*%
%TF.FileFunction,Legend,Top*%
%TF.FilePolarity,Positive*%
%FSLAX46Y46*%
G04 Gerber Fmt 4.6, Leading zero omitted, Abs format (unit mm)*
G04 Created by KiCad (PCBNEW 9.0.4) date 2026-03-30 00:29:42*
%MOMM*%
%LPD*%
G01*
G04 APERTURE LIST*
%ADD10C,0.150000*%
%ADD11C,0.120000*%
%ADD12C,0.127000*%
%ADD13C,0.200000*%
G04 APERTURE END LIST*
D10*
X147333333Y-66179580D02*
X147285714Y-66227200D01*
X147285714Y-66227200D02*
X147142857Y-66274819D01*
X147142857Y-66274819D02*
X147047619Y-66274819D01*
X147047619Y-66274819D02*
X146904762Y-66227200D01*
X146904762Y-66227200D02*
X146809524Y-66131961D01*
X146809524Y-66131961D02*
X146761905Y-66036723D01*
X146761905Y-66036723D02*
X146714286Y-65846247D01*
X146714286Y-65846247D02*
X146714286Y-65703390D01*
X146714286Y-65703390D02*
X146761905Y-65512914D01*
X146761905Y-65512914D02*
X146809524Y-65417676D01*
X146809524Y-65417676D02*
X146904762Y-65322438D01*
X146904762Y-65322438D02*
X147047619Y-65274819D01*
X147047619Y-65274819D02*
X147142857Y-65274819D01*
X147142857Y-65274819D02*
X147285714Y-65322438D01*
X147285714Y-65322438D02*
X147333333Y-65370057D01*
X148285714Y-66274819D02*
X147714286Y-66274819D01*
X148000000Y-66274819D02*
X148000000Y-65274819D01*
X148000000Y-65274819D02*
X147904762Y-65417676D01*
X147904762Y-65417676D02*
X147809524Y-65512914D01*
X147809524Y-65512914D02*
X147714286Y-65560533D01*
X153358333Y-66009580D02*
X153310714Y-66057200D01*
X153310714Y-66057200D02*
X153167857Y-66104819D01*
X153167857Y-66104819D02*
X153072619Y-66104819D01*
X153072619Y-66104819D02*
X152929762Y-66057200D01*
X152929762Y-66057200D02*
X152834524Y-65961961D01*
X152834524Y-65961961D02*
X152786905Y-65866723D01*
X152786905Y-65866723D02*
X152739286Y-65676247D01*
X152739286Y-65676247D02*
X152739286Y-65533390D01*
X152739286Y-65533390D02*
X152786905Y-65342914D01*
X152786905Y-65342914D02*
X152834524Y-65247676D01*
X152834524Y-65247676D02*
X152929762Y-65152438D01*
X152929762Y-65152438D02*
X153072619Y-65104819D01*
X153072619Y-65104819D02*
X153167857Y-65104819D01*
X153167857Y-65104819D02*
X153310714Y-65152438D01*
X153310714Y-65152438D02*
X153358333Y-65200057D01*
X153739286Y-65200057D02*
X153786905Y-65152438D01*
X153786905Y-65152438D02*
X153882143Y-65104819D01*
X153882143Y-65104819D02*
X154120238Y-65104819D01*
X154120238Y-65104819D02*
X154215476Y-65152438D01*
X154215476Y-65152438D02*
X154263095Y-65200057D01*
X154263095Y-65200057D02*
X154310714Y-65295295D01*
X154310714Y-65295295D02*
X154310714Y-65390533D01*
X154310714Y-65390533D02*
X154263095Y-65533390D01*
X154263095Y-65533390D02*
X153691667Y-66104819D01*
X153691667Y-66104819D02*
X154310714Y-66104819D01*
X150858333Y-63509580D02*
X150810714Y-63557200D01*
X150810714Y-63557200D02*
X150667857Y-63604819D01*
X150667857Y-63604819D02*
X150572619Y-63604819D01*
X150572619Y-63604819D02*
X150429762Y-63557200D01*
X150429762Y-63557200D02*
X150334524Y-63461961D01*
X150334524Y-63461961D02*
X150286905Y-63366723D01*
X150286905Y-63366723D02*
X150239286Y-63176247D01*
X150239286Y-63176247D02*
X150239286Y-63033390D01*
X150239286Y-63033390D02*
X150286905Y-62842914D01*
X150286905Y-62842914D02*
X150334524Y-62747676D01*
X150334524Y-62747676D02*
X150429762Y-62652438D01*
X150429762Y-62652438D02*
X150572619Y-62604819D01*
X150572619Y-62604819D02*
X150667857Y-62604819D01*
X150667857Y-62604819D02*
X150810714Y-62652438D01*
X150810714Y-62652438D02*
X150858333Y-62700057D01*
X151191667Y-62604819D02*
X151810714Y-62604819D01*
X151810714Y-62604819D02*
X151477381Y-62985771D01*
X151477381Y-62985771D02*
X151620238Y-62985771D01*
X151620238Y-62985771D02*
X151715476Y-63033390D01*
X151715476Y-63033390D02*
X151763095Y-63081009D01*
X151763095Y-63081009D02*
X151810714Y-63176247D01*
X151810714Y-63176247D02*
X151810714Y-63414342D01*
X151810714Y-63414342D02*
X151763095Y-63509580D01*
X151763095Y-63509580D02*
X151715476Y-63557200D01*
X151715476Y-63557200D02*
X151620238Y-63604819D01*
X151620238Y-63604819D02*
X151334524Y-63604819D01*
X151334524Y-63604819D02*
X151239286Y-63557200D01*
X151239286Y-63557200D02*
X151191667Y-63509580D01*
X142892319Y-65166666D02*
X142416128Y-65499999D01*
X142892319Y-65738094D02*
X141892319Y-65738094D01*
X141892319Y-65738094D02*
X141892319Y-65357142D01*
X141892319Y-65357142D02*
X141939938Y-65261904D01*
X141939938Y-65261904D02*
X141987557Y-65214285D01*
X141987557Y-65214285D02*
X142082795Y-65166666D01*
X142082795Y-65166666D02*
X142225652Y-65166666D01*
X142225652Y-65166666D02*
X142320890Y-65214285D01*
X142320890Y-65214285D02*
X142368509Y-65261904D01*
X142368509Y-65261904D02*
X142416128Y-65357142D01*
X142416128Y-65357142D02*
X142416128Y-65738094D01*
X141892319Y-64833332D02*
X141892319Y-64214285D01*
X141892319Y-64214285D02*
X142273271Y-64547618D01*
X142273271Y-64547618D02*
X142273271Y-64404761D01*
X142273271Y-64404761D02*
X142320890Y-64309523D01*
X142320890Y-64309523D02*
X142368509Y-64261904D01*
X142368509Y-64261904D02*
X142463747Y-64214285D01*
X142463747Y-64214285D02*
X142701842Y-64214285D01*
X142701842Y-64214285D02*
X142797080Y-64261904D01*
X142797080Y-64261904D02*
X142844700Y-64309523D01*
X142844700Y-64309523D02*
X142892319Y-64404761D01*
X142892319Y-64404761D02*
X142892319Y-64690475D01*
X142892319Y-64690475D02*
X142844700Y-64785713D01*
X142844700Y-64785713D02*
X142797080Y-64833332D01*
X138634761Y-61990057D02*
X138539523Y-61942438D01*
X138539523Y-61942438D02*
X138444285Y-61847200D01*
X138444285Y-61847200D02*
X138301428Y-61704342D01*
X138301428Y-61704342D02*
X138206190Y-61656723D01*
X138206190Y-61656723D02*
X138110952Y-61656723D01*
X138158571Y-61894819D02*
X138063333Y-61847200D01*
X138063333Y-61847200D02*
X137968095Y-61751961D01*
X137968095Y-61751961D02*
X137920476Y-61561485D01*
X137920476Y-61561485D02*
X137920476Y-61228152D01*
X137920476Y-61228152D02*
X137968095Y-61037676D01*
X137968095Y-61037676D02*
X138063333Y-60942438D01*
X138063333Y-60942438D02*
X138158571Y-60894819D01*
X138158571Y-60894819D02*
X138349047Y-60894819D01*
X138349047Y-60894819D02*
X138444285Y-60942438D01*
X138444285Y-60942438D02*
X138539523Y-61037676D01*
X138539523Y-61037676D02*
X138587142Y-61228152D01*
X138587142Y-61228152D02*
X138587142Y-61561485D01*
X138587142Y-61561485D02*
X138539523Y-61751961D01*
X138539523Y-61751961D02*
X138444285Y-61847200D01*
X138444285Y-61847200D02*
X138349047Y-61894819D01*
X138349047Y-61894819D02*
X138158571Y-61894819D01*
X139539523Y-61894819D02*
X138968095Y-61894819D01*
X139253809Y-61894819D02*
X139253809Y-60894819D01*
X139253809Y-60894819D02*
X139158571Y-61037676D01*
X139158571Y-61037676D02*
X139063333Y-61132914D01*
X139063333Y-61132914D02*
X138968095Y-61180533D01*
X131024819Y-78563333D02*
X131739104Y-78563333D01*
X131739104Y-78563333D02*
X131881961Y-78610952D01*
X131881961Y-78610952D02*
X131977200Y-78706190D01*
X131977200Y-78706190D02*
X132024819Y-78849047D01*
X132024819Y-78849047D02*
X132024819Y-78944285D01*
X131024819Y-78182380D02*
X131024819Y-77563333D01*
X131024819Y-77563333D02*
X131405771Y-77896666D01*
X131405771Y-77896666D02*
X131405771Y-77753809D01*
X131405771Y-77753809D02*
X131453390Y-77658571D01*
X131453390Y-77658571D02*
X131501009Y-77610952D01*
X131501009Y-77610952D02*
X131596247Y-77563333D01*
X131596247Y-77563333D02*
X131834342Y-77563333D01*
X131834342Y-77563333D02*
X131929580Y-77610952D01*
X131929580Y-77610952D02*
X131977200Y-77658571D01*
X131977200Y-77658571D02*
X132024819Y-77753809D01*
X132024819Y-77753809D02*
X132024819Y-78039523D01*
X132024819Y-78039523D02*
X131977200Y-78134761D01*
X131977200Y-78134761D02*
X131929580Y-78182380D01*
X160913095Y-63319819D02*
X160913095Y-64129342D01*
X160913095Y-64129342D02*
X160960714Y-64224580D01*
X160960714Y-64224580D02*
X161008333Y-64272200D01*
X161008333Y-64272200D02*
X161103571Y-64319819D01*
X161103571Y-64319819D02*
X161294047Y-64319819D01*
X161294047Y-64319819D02*
X161389285Y-64272200D01*
X161389285Y-64272200D02*
X161436904Y-64224580D01*
X161436904Y-64224580D02*
X161484523Y-64129342D01*
X161484523Y-64129342D02*
X161484523Y-63319819D01*
X161913095Y-63415057D02*
X161960714Y-63367438D01*
X161960714Y-63367438D02*
X162055952Y-63319819D01*
X162055952Y-63319819D02*
X162294047Y-63319819D01*
X162294047Y-63319819D02*
X162389285Y-63367438D01*
X162389285Y-63367438D02*
X162436904Y-63415057D01*
X162436904Y-63415057D02*
X162484523Y-63510295D01*
X162484523Y-63510295D02*
X162484523Y-63605533D01*
X162484523Y-63605533D02*
X162436904Y-63748390D01*
X162436904Y-63748390D02*
X161865476Y-64319819D01*
X161865476Y-64319819D02*
X162484523Y-64319819D01*
X127196666Y-56364819D02*
X127196666Y-57079104D01*
X127196666Y-57079104D02*
X127149047Y-57221961D01*
X127149047Y-57221961D02*
X127053809Y-57317200D01*
X127053809Y-57317200D02*
X126910952Y-57364819D01*
X126910952Y-57364819D02*
X126815714Y-57364819D01*
X128196666Y-57364819D02*
X127625238Y-57364819D01*
X127910952Y-57364819D02*
X127910952Y-56364819D01*
X127910952Y-56364819D02*
X127815714Y-56507676D01*
X127815714Y-56507676D02*
X127720476Y-56602914D01*
X127720476Y-56602914D02*
X127625238Y-56650533D01*
X158920833Y-62104819D02*
X158587500Y-61628628D01*
X158349405Y-62104819D02*
X158349405Y-61104819D01*
X158349405Y-61104819D02*
X158730357Y-61104819D01*
X158730357Y-61104819D02*
X158825595Y-61152438D01*
X158825595Y-61152438D02*
X158873214Y-61200057D01*
X158873214Y-61200057D02*
X158920833Y-61295295D01*
X158920833Y-61295295D02*
X158920833Y-61438152D01*
X158920833Y-61438152D02*
X158873214Y-61533390D01*
X158873214Y-61533390D02*
X158825595Y-61581009D01*
X158825595Y-61581009D02*
X158730357Y-61628628D01*
X158730357Y-61628628D02*
X158349405Y-61628628D01*
X159301786Y-61200057D02*
X159349405Y-61152438D01*
X159349405Y-61152438D02*
X159444643Y-61104819D01*
X159444643Y-61104819D02*
X159682738Y-61104819D01*
X159682738Y-61104819D02*
X159777976Y-61152438D01*
X159777976Y-61152438D02*
X159825595Y-61200057D01*
X159825595Y-61200057D02*
X159873214Y-61295295D01*
X159873214Y-61295295D02*
X159873214Y-61390533D01*
X159873214Y-61390533D02*
X159825595Y-61533390D01*
X159825595Y-61533390D02*
X159254167Y-62104819D01*
X159254167Y-62104819D02*
X159873214Y-62104819D01*
X137104819Y-66754166D02*
X136628628Y-67087499D01*
X137104819Y-67325594D02*
X136104819Y-67325594D01*
X136104819Y-67325594D02*
X136104819Y-66944642D01*
X136104819Y-66944642D02*
X136152438Y-66849404D01*
X136152438Y-66849404D02*
X136200057Y-66801785D01*
X136200057Y-66801785D02*
X136295295Y-66754166D01*
X136295295Y-66754166D02*
X136438152Y-66754166D01*
X136438152Y-66754166D02*
X136533390Y-66801785D01*
X136533390Y-66801785D02*
X136581009Y-66849404D01*
X136581009Y-66849404D02*
X136628628Y-66944642D01*
X136628628Y-66944642D02*
X136628628Y-67325594D01*
X137104819Y-65801785D02*
X137104819Y-66373213D01*
X137104819Y-66087499D02*
X136104819Y-66087499D01*
X136104819Y-66087499D02*
X136247676Y-66182737D01*
X136247676Y-66182737D02*
X136342914Y-66277975D01*
X136342914Y-66277975D02*
X136390533Y-66373213D01*
X148666666Y-81554819D02*
X148666666Y-82269104D01*
X148666666Y-82269104D02*
X148619047Y-82411961D01*
X148619047Y-82411961D02*
X148523809Y-82507200D01*
X148523809Y-82507200D02*
X148380952Y-82554819D01*
X148380952Y-82554819D02*
X148285714Y-82554819D01*
X149571428Y-81888152D02*
X149571428Y-82554819D01*
X149333333Y-81507200D02*
X149095238Y-82221485D01*
X149095238Y-82221485D02*
X149714285Y-82221485D01*
X131004819Y-55733333D02*
X131719104Y-55733333D01*
X131719104Y-55733333D02*
X131861961Y-55780952D01*
X131861961Y-55780952D02*
X131957200Y-55876190D01*
X131957200Y-55876190D02*
X132004819Y-56019047D01*
X132004819Y-56019047D02*
X132004819Y-56114285D01*
X131100057Y-55304761D02*
X131052438Y-55257142D01*
X131052438Y-55257142D02*
X131004819Y-55161904D01*
X131004819Y-55161904D02*
X131004819Y-54923809D01*
X131004819Y-54923809D02*
X131052438Y-54828571D01*
X131052438Y-54828571D02*
X131100057Y-54780952D01*
X131100057Y-54780952D02*
X131195295Y-54733333D01*
X131195295Y-54733333D02*
X131290533Y-54733333D01*
X131290533Y-54733333D02*
X131433390Y-54780952D01*
X131433390Y-54780952D02*
X132004819Y-55352380D01*
X132004819Y-55352380D02*
X132004819Y-54733333D01*
X130741666Y-92689819D02*
X130741666Y-93404104D01*
X130741666Y-93404104D02*
X130694047Y-93546961D01*
X130694047Y-93546961D02*
X130598809Y-93642200D01*
X130598809Y-93642200D02*
X130455952Y-93689819D01*
X130455952Y-93689819D02*
X130360714Y-93689819D01*
X131646428Y-92689819D02*
X131455952Y-92689819D01*
X131455952Y-92689819D02*
X131360714Y-92737438D01*
X131360714Y-92737438D02*
X131313095Y-92785057D01*
X131313095Y-92785057D02*
X131217857Y-92927914D01*
X131217857Y-92927914D02*
X131170238Y-93118390D01*
X131170238Y-93118390D02*
X131170238Y-93499342D01*
X131170238Y-93499342D02*
X131217857Y-93594580D01*
X131217857Y-93594580D02*
X131265476Y-93642200D01*
X131265476Y-93642200D02*
X131360714Y-93689819D01*
X131360714Y-93689819D02*
X131551190Y-93689819D01*
X131551190Y-93689819D02*
X131646428Y-93642200D01*
X131646428Y-93642200D02*
X131694047Y-93594580D01*
X131694047Y-93594580D02*
X131741666Y-93499342D01*
X131741666Y-93499342D02*
X131741666Y-93261247D01*
X131741666Y-93261247D02*
X131694047Y-93166009D01*
X131694047Y-93166009D02*
X131646428Y-93118390D01*
X131646428Y-93118390D02*
X131551190Y-93070771D01*
X131551190Y-93070771D02*
X131360714Y-93070771D01*
X131360714Y-93070771D02*
X131265476Y-93118390D01*
X131265476Y-93118390D02*
X131217857Y-93166009D01*
X131217857Y-93166009D02*
X131170238Y-93261247D01*
D11*
%TO.C,C1*%
X147238748Y-68235000D02*
X147761252Y-68235000D01*
X147238748Y-66765000D02*
X147761252Y-66765000D01*
%TO.C,C2*%
X152813748Y-68410000D02*
X154236252Y-68410000D01*
X152813748Y-66590000D02*
X154236252Y-66590000D01*
%TO.C,C3*%
X150313748Y-65910000D02*
X151736252Y-65910000D01*
X150313748Y-64090000D02*
X151736252Y-64090000D01*
%TO.C,R3*%
X144822500Y-65227064D02*
X144822500Y-64772936D01*
X143352500Y-65227064D02*
X143352500Y-64772936D01*
%TO.C,Q1*%
X136930000Y-66850000D02*
X140530000Y-66850000D01*
X136891522Y-66838478D02*
G75*
G02*
X138730000Y-62399999I1838478J1838478D01*
G01*
X138730000Y-62400000D02*
G75*
G02*
X140568478Y-66838478I0J-2600000D01*
G01*
%TO.C,J3*%
X132570000Y-75630000D02*
X153010000Y-75630000D01*
X132570000Y-78230000D02*
X132570000Y-75630000D01*
X132570000Y-80830000D02*
X132570000Y-79500000D01*
X133900000Y-80830000D02*
X132570000Y-80830000D01*
X135170000Y-78230000D02*
X132570000Y-78230000D01*
X135170000Y-80830000D02*
X135170000Y-78230000D01*
X135170000Y-80830000D02*
X153010000Y-80830000D01*
X153010000Y-80830000D02*
X153010000Y-75630000D01*
D12*
%TO.C,U2*%
X159200000Y-65155000D02*
X165800000Y-65155000D01*
X159200000Y-66475000D02*
X159200000Y-65155000D01*
X159200000Y-84845000D02*
X159200000Y-83525000D01*
X165800000Y-65155000D02*
X165800000Y-66475000D01*
X165800000Y-83525000D02*
X165800000Y-84845000D01*
X165800000Y-84845000D02*
X159200000Y-84845000D01*
D13*
X157545000Y-67380000D02*
G75*
G02*
X157345000Y-67380000I-100000J0D01*
G01*
X157345000Y-67380000D02*
G75*
G02*
X157545000Y-67380000I100000J0D01*
G01*
D11*
%TO.C,J1*%
X124930000Y-57910000D02*
X126260000Y-57910000D01*
X124930000Y-59240000D02*
X124930000Y-57910000D01*
X124930000Y-60510000D02*
X124930000Y-75810000D01*
X124930000Y-60510000D02*
X127530000Y-60510000D01*
X124930000Y-75810000D02*
X130130000Y-75810000D01*
X127530000Y-57910000D02*
X130130000Y-57910000D01*
X127530000Y-60510000D02*
X127530000Y-57910000D01*
X130130000Y-57910000D02*
X130130000Y-75810000D01*
%TO.C,R2*%
X159314564Y-59265000D02*
X158860436Y-59265000D01*
X159314564Y-60735000D02*
X158860436Y-60735000D01*
%TO.C,R1*%
X134265000Y-66360436D02*
X134265000Y-66814564D01*
X135735000Y-66360436D02*
X135735000Y-66814564D01*
%TO.C,J4*%
X145640000Y-82890000D02*
X145640000Y-84140000D01*
X145940000Y-83190000D02*
X145940000Y-87910000D01*
X145940000Y-84500000D02*
X146550000Y-84500000D01*
X145940000Y-85800000D02*
X146550000Y-85800000D01*
X145940000Y-87910000D02*
X152060000Y-87910000D01*
X146550000Y-83800000D02*
X146550000Y-87300000D01*
X146550000Y-87300000D02*
X151450000Y-87300000D01*
X146890000Y-82890000D02*
X145640000Y-82890000D01*
X147400000Y-82990000D02*
X147400000Y-83190000D01*
X147700000Y-82990000D02*
X147400000Y-82990000D01*
X147700000Y-83090000D02*
X147400000Y-83090000D01*
X147700000Y-83190000D02*
X147700000Y-82990000D01*
X148500000Y-83190000D02*
X148500000Y-83800000D01*
X148500000Y-83800000D02*
X146550000Y-83800000D01*
X148900000Y-86800000D02*
X149100000Y-86800000D01*
X148900000Y-87300000D02*
X148900000Y-86800000D01*
X149000000Y-87300000D02*
X149000000Y-86800000D01*
X149100000Y-86800000D02*
X149100000Y-87300000D01*
X149500000Y-83800000D02*
X149500000Y-83190000D01*
X151450000Y-83800000D02*
X149500000Y-83800000D01*
X151450000Y-87300000D02*
X151450000Y-83800000D01*
X152060000Y-83190000D02*
X145940000Y-83190000D01*
X152060000Y-84500000D02*
X151450000Y-84500000D01*
X152060000Y-85800000D02*
X151450000Y-85800000D01*
X152060000Y-87910000D02*
X152060000Y-83190000D01*
%TO.C,J2*%
X132550000Y-52800000D02*
X152990000Y-52800000D01*
X132550000Y-55400000D02*
X132550000Y-52800000D01*
X132550000Y-58000000D02*
X132550000Y-56670000D01*
X133880000Y-58000000D02*
X132550000Y-58000000D01*
X135150000Y-55400000D02*
X132550000Y-55400000D01*
X135150000Y-58000000D02*
X135150000Y-55400000D01*
X135150000Y-58000000D02*
X152990000Y-58000000D01*
X152990000Y-58000000D02*
X152990000Y-52800000D01*
D13*
%TO.C,J6*%
X131975000Y-90750000D02*
G75*
G02*
X131775000Y-90750000I-100000J0D01*
G01*
X131775000Y-90750000D02*
G75*
G02*
X131975000Y-90750000I100000J0D01*
G01*
D12*
X134125000Y-89125000D02*
X132495000Y-89125000D01*
X134125000Y-87845000D02*
X134125000Y-89125000D01*
X127505000Y-89125000D02*
X125875000Y-89125000D01*
X127095000Y-85075000D02*
X132905000Y-85075000D01*
X125875000Y-89125000D02*
X125875000Y-87845000D01*
%TD*%
M02*
