%TF.GenerationSoftware,KiCad,Pcbnew,9.0.4*%
%TF.CreationDate,2026-03-30T00:29:42-04:00*%
%TF.ProjectId,spectropcb,73706563-7472-46f7-9063-622e6b696361,rev?*%
%TF.SameCoordinates,Original*%
%TF.FileFunction,Soldermask,Top*%
%TF.FilePolarity,Negative*%
%FSLAX46Y46*%
G04 Gerber Fmt 4.6, Leading zero omitted, Abs format (unit mm)*
G04 Created by KiCad (PCBNEW 9.0.4) date 2026-03-30 00:29:42*
%MOMM*%
%LPD*%
G01*
G04 APERTURE LIST*
G04 Aperture macros list*
%AMRoundRect*
0 Rectangle with rounded corners*
0 $1 Rounding radius*
0 $2 $3 $4 $5 $6 $7 $8 $9 X,Y pos of 4 corners*
0 Add a 4 corners polygon primitive as box body*
4,1,4,$2,$3,$4,$5,$6,$7,$8,$9,$2,$3,0*
0 Add four circle primitives for the rounded corners*
1,1,$1+$1,$2,$3*
1,1,$1+$1,$4,$5*
1,1,$1+$1,$6,$7*
1,1,$1+$1,$8,$9*
0 Add four rect primitives between the rounded corners*
20,1,$1+$1,$2,$3,$4,$5,0*
20,1,$1+$1,$4,$5,$6,$7,0*
20,1,$1+$1,$6,$7,$8,$9,0*
20,1,$1+$1,$8,$9,$2,$3,0*%
G04 Aperture macros list end*
%ADD10RoundRect,0.250000X-0.250000X-0.475000X0.250000X-0.475000X0.250000X0.475000X-0.250000X0.475000X0*%
%ADD11RoundRect,0.250000X-0.325000X-0.650000X0.325000X-0.650000X0.325000X0.650000X-0.325000X0.650000X0*%
%ADD12RoundRect,0.250000X0.450000X-0.262500X0.450000X0.262500X-0.450000X0.262500X-0.450000X-0.262500X0*%
%ADD13C,1.473200*%
%ADD14R,1.473200X1.473200*%
%ADD15R,1.050000X1.500000*%
%ADD16O,1.050000X1.500000*%
%ADD17R,1.700000X1.700000*%
%ADD18O,1.700000X1.700000*%
%ADD19RoundRect,0.102000X-0.585000X-0.585000X0.585000X-0.585000X0.585000X0.585000X-0.585000X0.585000X0*%
%ADD20C,1.374000*%
%ADD21RoundRect,0.250000X0.262500X0.450000X-0.262500X0.450000X-0.262500X-0.450000X0.262500X-0.450000X0*%
%ADD22RoundRect,0.250000X-0.450000X0.262500X-0.450000X-0.262500X0.450000X-0.262500X0.450000X0.262500X0*%
%ADD23RoundRect,0.250000X-0.350000X-0.625000X0.350000X-0.625000X0.350000X0.625000X-0.350000X0.625000X0*%
%ADD24O,1.200000X1.750000*%
%ADD25RoundRect,0.102000X0.500000X1.350000X-0.500000X1.350000X-0.500000X-1.350000X0.500000X-1.350000X0*%
%ADD26RoundRect,0.102000X0.300000X0.850000X-0.300000X0.850000X-0.300000X-0.850000X0.300000X-0.850000X0*%
G04 APERTURE END LIST*
D10*
%TO.C,C1*%
X148450000Y-67500000D03*
X146550000Y-67500000D03*
%TD*%
D11*
%TO.C,C2*%
X155000000Y-67500000D03*
X152050000Y-67500000D03*
%TD*%
%TO.C,C3*%
X152500000Y-65000000D03*
X149550000Y-65000000D03*
%TD*%
D12*
%TO.C,R3*%
X144087500Y-64087500D03*
X144087500Y-65912500D03*
%TD*%
D13*
%TO.C,U1*%
X169920000Y-54800000D03*
X169920000Y-57340000D03*
X169920000Y-59880000D03*
X169920000Y-62420000D03*
X169920000Y-64960000D03*
X169920000Y-67500000D03*
X169920000Y-70040000D03*
X169920000Y-72580000D03*
X169920000Y-75120000D03*
X169920000Y-77660000D03*
X169920000Y-80200000D03*
X180080000Y-80200000D03*
X180080000Y-77660000D03*
X180080000Y-75120000D03*
X180080000Y-72580000D03*
X180080000Y-70040000D03*
X180080000Y-67500000D03*
X180080000Y-64960000D03*
X180080000Y-62420000D03*
X180080000Y-59880000D03*
X180080000Y-57340000D03*
D14*
X180080000Y-54800000D03*
%TD*%
D15*
%TO.C,Q1*%
X137460000Y-65000000D03*
D16*
X138730000Y-65000000D03*
X140000000Y-65000000D03*
%TD*%
D17*
%TO.C,J3*%
X133900000Y-79500000D03*
D18*
X133900000Y-76960000D03*
X136440000Y-79500000D03*
X136440000Y-76960000D03*
X138980000Y-79500000D03*
X138980000Y-76960000D03*
X141520000Y-79500000D03*
X141520000Y-76960000D03*
X144060000Y-79500000D03*
X144060000Y-76960000D03*
X146600000Y-79500000D03*
X146600000Y-76960000D03*
X149140000Y-79500000D03*
X149140000Y-76960000D03*
X151680000Y-79500000D03*
X151680000Y-76960000D03*
%TD*%
D19*
%TO.C,U2*%
X158530000Y-67380000D03*
D20*
X158530000Y-69920000D03*
X158530000Y-72460000D03*
X158530000Y-75000000D03*
X158530000Y-77540000D03*
X158530000Y-80080000D03*
X158530000Y-82620000D03*
X166470000Y-82620000D03*
X166470000Y-80080000D03*
X166470000Y-77540000D03*
X166470000Y-75000000D03*
X166470000Y-72460000D03*
X166470000Y-69920000D03*
X166470000Y-67380000D03*
%TD*%
D17*
%TO.C,J1*%
X126260000Y-59240000D03*
D18*
X128800000Y-59240000D03*
X126260000Y-61780000D03*
X128800000Y-61780000D03*
X126260000Y-64320000D03*
X128800000Y-64320000D03*
X126260000Y-66860000D03*
X128800000Y-66860000D03*
X126260000Y-69400000D03*
X128800000Y-69400000D03*
X126260000Y-71940000D03*
X128800000Y-71940000D03*
X126260000Y-74480000D03*
X128800000Y-74480000D03*
%TD*%
D21*
%TO.C,R2*%
X160000000Y-60000000D03*
X158175000Y-60000000D03*
%TD*%
D22*
%TO.C,R1*%
X135000000Y-65675000D03*
X135000000Y-67500000D03*
%TD*%
D23*
%TO.C,J4*%
X148000000Y-85000000D03*
D24*
X150000000Y-85000000D03*
%TD*%
D17*
%TO.C,J2*%
X133880000Y-56670000D03*
D18*
X133880000Y-54130000D03*
X136420000Y-56670000D03*
X136420000Y-54130000D03*
X138960000Y-56670000D03*
X138960000Y-54130000D03*
X141500000Y-56670000D03*
X141500000Y-54130000D03*
X144040000Y-56670000D03*
X144040000Y-54130000D03*
X146580000Y-56670000D03*
X146580000Y-54130000D03*
X149120000Y-56670000D03*
X149120000Y-54130000D03*
X151660000Y-56670000D03*
X151660000Y-54130000D03*
%TD*%
D25*
%TO.C,J6*%
X126275000Y-86175000D03*
X133725000Y-86175000D03*
D26*
X128125000Y-89375000D03*
X129375000Y-89375000D03*
X130625000Y-89375000D03*
X131875000Y-89375000D03*
%TD*%
M02*
